<svg width="19" height="23" viewBox="0 0 19 23" fill="none" xmlns="http://www.w3.org/2000/svg">
<g clip-path="url(#clip0_91_1004)">
<path d="M4.66837 18.9906V19.3406V22.4774C4.66837 22.5658 4.69031 22.6063 4.70904 22.6289L4.71005 22.6301C4.72154 22.644 4.72793 22.6468 4.72832 22.647C4.7286 22.6471 4.73396 22.65 4.7503 22.65H7.00374C7.00828 22.65 7.01069 22.6495 7.01158 22.6493C7.01242 22.6492 7.01323 22.6489 7.01447 22.6483C7.01647 22.6473 7.02664 22.642 7.04326 22.6229L7.044 22.622C7.06398 22.5992 7.08545 22.561 7.08545 22.4774V19.3406V18.9906H7.43545H14.2501C14.2668 18.9906 14.2724 18.9876 14.2726 18.9875L14.2727 18.9875C14.2733 18.9872 14.2795 18.9844 14.2905 18.971L14.2907 18.9707C14.3101 18.9473 14.332 18.9062 14.332 18.8179V16.7269C14.332 16.639 14.3099 16.5978 14.2913 16.5755L14.2902 16.5741C14.2791 16.5606 14.2728 16.5577 14.272 16.5574L14.272 16.5573C14.2716 16.5571 14.2662 16.5543 14.2501 16.5543H7.43523H7.08523V16.2043V14.2766V13.9266H7.43523H12.0233C13.7236 13.9266 15.0937 13.3052 16.1634 12.0562L16.1634 12.0561C17.2365 10.804 17.7863 9.17505 17.7863 7.13832C17.7863 5.10316 17.2366 3.47411 16.1634 2.22057L4.66837 18.9906ZM4.66837 18.9906H4.31837M4.66837 18.9906H4.31837M4.31837 18.9906H1.29558C1.27894 18.9906 1.27333 18.9877 1.27298 18.9875L1.27296 18.9875L1.27295 18.9875C1.27256 18.9874 1.26636 18.9846 1.25513 18.971L1.25493 18.9708C1.23552 18.9473 1.21365 18.9061 1.21365 18.8179V16.7269C1.21365 16.6394 1.23571 16.5978 1.25468 16.575L1.25508 16.5745C1.26655 16.5606 1.27304 16.5576 1.27369 16.5572L1.27373 16.5572L1.27376 16.5572C1.27427 16.557 1.2797 16.5542 1.29558 16.5542H4.31837H4.66837V16.2042V14.2766V13.9266H4.31837H1.29558C1.27844 13.9266 1.27298 13.9236 1.27295 13.9236C1.27286 13.9236 1.26662 13.921 1.25503 13.907L1.25493 13.9068C1.23551 13.8833 1.21365 13.8422 1.21365 13.754V11.3203C1.21365 11.2507 1.23178 11.2056 1.26088 11.1683L0.985143 10.9528M4.31837 18.9906L4.66814 11.1477M4.66814 11.1477H4.31814H1.29558C1.28808 11.1477 1.28389 11.1485 1.28219 11.1488C1.28066 11.1492 1.28013 11.1495 1.27995 11.1495L1.27993 11.1496C1.27973 11.1497 1.27824 11.1504 1.27536 11.1528C1.27237 11.1553 1.26727 11.1602 1.26054 11.1688L0.985143 10.9528M4.66814 11.1477V10.7977V0.522601C4.66814 0.436066 4.68981 0.393812 4.70935 0.369862M4.66814 11.1477L4.70935 0.369862M0.985143 10.9528C0.904245 11.0562 0.863647 11.1787 0.863647 11.3203V13.754C0.863647 13.9066 0.903985 14.0316 0.985143 14.1298M0.985143 10.9528C1.06626 10.8493 1.16955 10.7977 1.29558 10.7977H3.96814H4.31814V10.4477V0.522601L0.985143 14.1298M0.985143 14.1298C1.0663 14.2281 1.16932 14.2766 1.29558 14.2766H3.96837H4.31837L0.985143 14.1298ZM4.70935 0.369862C4.72057 0.356466 4.72697 0.353471 4.72776 0.353106L4.7278 0.353087L4.72784 0.353065C4.72853 0.352729 4.73413 0.35 4.75008 0.35H12.0233C13.7234 0.35 15.0938 0.972696 16.1633 2.22041L4.70935 0.369862ZM14.5605 16.3517C14.6417 16.4494 14.682 16.5752 14.682 16.7269V18.8179C14.682 18.9705 14.6417 19.0956 14.5605 19.1938C14.4793 19.2921 14.3758 19.3406 14.2501 19.3406H7.78545H7.43545L14.5605 16.3517ZM14.5605 16.3517C14.4796 16.2534 14.3758 16.2043 14.2501 16.2043M14.5605 16.3517L14.2501 16.2043M14.2501 16.2043H7.78523H14.2501ZM4.31837 22.4774C4.31837 22.63 4.3587 22.7549 4.43986 22.8526L1.29558 19.3406H3.96837H4.31837V19.6906V22.4774ZM7.43523 3.12976H7.08523V3.47976V10.798V11.148H7.43523H11.7534C12.8005 11.148 13.669 10.7722 14.3253 10.014C14.9767 9.26274 15.288 8.29255 15.288 7.1386C15.288 5.98507 14.9766 5.01529 14.3255 4.2633L14.3254 4.26323C13.6691 3.50563 12.8007 3.12976 11.7534 3.12976H7.43523Z" fill="black" stroke="white" stroke-width="0.7"/>
</g>
<defs>
<clipPath id="clip0_91_1004">
<rect width="19" height="23" fill="white"/>
</clipPath>
</defs>
</svg>
